<?xml version="1.0" encoding="UTF-8"?>
<svg version="1.1" xmlns="http://www.w3.org/2000/svg" width="80" height="80">
<path d="M0 0 C0.66 0 1.32 0 2 0 C9.53761391 18.58790227 10.02136674 36.17543864 2.3125 54.8125 C1.55214098 56.54629801 0.78528157 58.27734674 0 60 C3.38834521 58.72340515 6.38180643 57.20106541 9.5 55.375 C16.11553525 52.10143381 22.84630824 51.40965259 29.97949219 53.61083984 C33.31805166 54.82710912 36.55196675 56.21723401 39.78515625 57.6875 C43.03846945 59.25198381 43.03846945 59.25198381 47 59 C46.10796875 58.11957031 45.2159375 57.23914062 44.296875 56.33203125 C43.11444899 55.15898957 41.93216481 53.98580491 40.75 52.8125 C40.16347656 52.23435547 39.57695313 51.65621094 38.97265625 51.06054688 C35.75018163 47.85617604 32.75826734 44.62534642 30 41 C24.96395634 42.80381927 20.91567802 45.6343516 16.5234375 48.63671875 C15.69070312 49.08660156 14.85796875 49.53648438 14 50 C12.515 49.505 12.515 49.505 11 49 C10.25 46.3125 10.25 46.3125 10 43 C11.62942347 40.16622005 13.23646087 38.43467396 16.0859375 36.8125 C18.54757915 35.36142703 20.23683123 34.26630626 22 32 C22.40000282 27.53063513 21.83449895 23.39415855 21 19 C25 19 25 19 27.75 21.5 C28.4925 22.325 29.235 23.15 30 24 C35.15347117 22.21072972 38.90696298 19.18437004 43.18359375 15.875 C46.12468835 13.91698973 48.55021539 12.75923733 52 12 C52.99 12.66 53.98 13.32 55 14 C55.4375 16.37890625 55.4375 16.37890625 55 19 C53.3125 21.02734375 53.3125 21.02734375 51 22.9375 C50.18660156 23.61683594 49.37320313 24.29617187 48.53515625 24.99609375 C45.07205949 27.73348764 41.58369103 30.42208602 38 33 C38.53132637 37.54118011 40.26710676 40.19236538 43 43.8125 C43.39501709 44.33658447 43.79003418 44.86066895 44.19702148 45.40063477 C47.46754569 49.61002219 51.12573679 52.95761427 55.34765625 56.18359375 C57 58 57 58 57.24609375 60.72265625 C57.16488281 61.47417969 57.08367187 62.22570312 57 63 C44.63252691 68.65370199 33.27954335 67.31249387 20.1875 65.625 C18.70866333 65.43635376 18.70866333 65.43635376 17.19995117 65.24389648 C16.28189697 65.11442627 15.36384277 64.98495605 14.41796875 64.8515625 C13.59063232 64.73635254 12.7632959 64.62114258 11.91088867 64.50244141 C10.96499878 64.25373291 10.96499878 64.25373291 10 64 C9.67 63.34 9.34 62.68 9 62 C0.6224155 64.15130336 0.6224155 64.15130336 -5.0625 70.25 C-5.40410156 70.95640625 -5.74570313 71.6628125 -6.09765625 72.390625 C-6.54431641 73.18726562 -6.54431641 73.18726562 -7 74 C-7.66 74 -8.32 74 -9 74 C-9.640625 72.1953125 -9.640625 72.1953125 -10 70 C-8.80687907 68.3428876 -7.60565431 66.6904466 -6.34765625 65.08203125 C-3.96552105 61.40180499 -3.04447788 57.22036998 -2 53 C-2.66 53 -3.32 53 -4 53 C-10.47200278 35.16346853 -6.66553898 17.13177212 0 0 Z M0 37 C0 38.98 0 40.96 0 43 C0.33 43 0.66 43 1 43 C1 41.02 1 39.04 1 37 C0.67 37 0.34 37 0 37 Z M-1 44 C-1 45.98 -1 47.96 -1 50 C-0.67 50 -0.34 50 0 50 C0 48.02 0 46.04 0 44 C-0.33 44 -0.66 44 -1 44 Z " fill="#303030" transform="translate(13,3)"/>
<path d="M0 0 C1.11375 0.556875 1.11375 0.556875 2.25 1.125 C2.5 3.37890625 2.5 3.37890625 2.25 6.125 C0.5625 8.15234375 0.5625 8.15234375 -1.75 10.0625 C-2.56339844 10.74183594 -3.37679687 11.42117187 -4.21484375 12.12109375 C-7.67794051 14.85848764 -11.16630897 17.54708602 -14.75 20.125 C-14.22233324 24.69811189 -12.44269555 27.36106248 -9.6875 31 C-9.28990479 31.5259375 -8.89230957 32.051875 -8.48266602 32.59375 C-5.44114699 36.50694223 -2.14049997 39.66310528 1.81640625 42.625 C3.25 44.125 3.25 44.125 3.25 48.125 C-3.0325803 47.98661717 -5.86930378 46.80377407 -10.234375 42.3046875 C-11.10835937 41.34949219 -11.10835937 41.34949219 -12 40.375 C-12.598125 39.75367188 -13.19625 39.13234375 -13.8125 38.4921875 C-16.97715173 35.17350404 -19.94794282 31.7593514 -22.75 28.125 C-27.78604366 29.92881927 -31.83432198 32.7593516 -36.2265625 35.76171875 C-37.05929688 36.21160156 -37.89203125 36.66148438 -38.75 37.125 C-39.74 36.795 -40.73 36.465 -41.75 36.125 C-42.5 33.4375 -42.5 33.4375 -42.75 30.125 C-41.12057653 27.29122005 -39.51353913 25.55967396 -36.6640625 23.9375 C-34.20242085 22.48642703 -32.51316877 21.39130626 -30.75 19.125 C-30.34999718 14.65563513 -30.91550105 10.51915855 -31.75 6.125 C-27.75 6.125 -27.75 6.125 -25 8.625 C-24.2575 9.45 -23.515 10.275 -22.75 11.125 C-18.67500769 9.70503898 -15.62079345 7.72265179 -12.1875 5.125 C-3.79472524 -1.20741258 -3.79472524 -1.20741258 0 0 Z " fill="#272727" transform="translate(65.75,15.875)"/>
<path d="M0 0 C0.66 0 1.32 0 2 0 C8.46672466 15.94706858 10.02877654 31.39119675 5 48 C4.37276717 49.35233177 3.72128955 50.69540673 3 52 C2.34 52 1.68 52 1 52 C0.67 48.04 0.34 44.08 0 40 C-0.66 44.29 -1.32 48.58 -2 53 C-2.66 53 -3.32 53 -4 53 C-10.47200278 35.16346853 -6.66553898 17.13177212 0 0 Z " fill="#2C2C2C" transform="translate(13,3)"/>
<path d="M0 0 C2.92456792 4.38685189 2.96295982 8.79955925 3 14 C2.0625 17.6875 2.0625 17.6875 1 20 C2.11375 19.5359375 2.11375 19.5359375 3.25 19.0625 C5.50692176 18.1905075 7.6450153 17.52332993 10 17 C9.34 18.32 8.68 19.64 8 21 C8.66 21.33 9.32 21.66 10 22 C9.26394531 22.1959375 8.52789063 22.391875 7.76953125 22.59375 C0.64956376 24.7680515 0.64956376 24.7680515 -4.0625 30.25 C-4.40410156 30.95640625 -4.74570313 31.6628125 -5.09765625 32.390625 C-5.39542969 32.92171875 -5.69320313 33.4528125 -6 34 C-6.66 34 -7.32 34 -8 34 C-8.63671875 32.18359375 -8.63671875 32.18359375 -9 30 C-7.81386346 28.40718807 -6.62393317 26.81704708 -5.4140625 25.2421875 C-0.6673508 17.71563359 0.7100219 8.73721399 0 0 Z " fill="#5D5D5D" transform="translate(12,43)"/>
<path d="M0 0 C2.92456792 4.38685189 2.96295982 8.79955925 3 14 C2.0625 17.6875 2.0625 17.6875 1 20 C0.01 19.67 -0.98 19.34 -2 19 C-1.855625 18.46632813 -1.71125 17.93265625 -1.5625 17.3828125 C-0.09631589 11.49771237 0.22734497 6.04990224 0 0 Z " fill="#727272" transform="translate(12,43)"/>
<path d="M0 0 C0.33 0 0.66 0 1 0 C1 1.65 1 3.3 1 5 C-0.98 5.66 -2.96 6.32 -5 7 C-5 6.34 -5 5.68 -5 5 C-6.65 4.67 -8.3 4.34 -10 4 C-7.24075815 2.19588033 -6.11027897 1.9872755 -2.75 2.375 C-1.8425 2.58125 -0.935 2.7875 0 3 C0 2.01 0 1.02 0 0 Z " fill="#949494" transform="translate(69,61)"/>
<path d="M0 0 C0.99 0.33 1.98 0.66 3 1 C2.01 2.485 2.01 2.485 1 4 C1.66 4.33 2.32 4.66 3 5 C0.69 5 -1.62 5 -4 5 C-3 2 -3 2 0 0 Z " fill="#505050" transform="translate(19,60)"/>
</svg>
