<svg version="1.1" id="Layer_1" xmlns="http://www.w3.org/2000/svg" xmlns:xlink="http://www.w3.org/1999/xlink" x="0px" y="0px"
	 width="100%" viewBox="0 0 100 100" enable-background="new 0 0 100 100" xml:space="preserve">
<path fill="#FDFDFD" opacity="1.000000" stroke="none" 
	d="
M61.000000,101.000000 
	C40.666672,101.000000 20.833340,101.000000 1.000008,101.000000 
	C1.000005,67.666679 1.000005,34.333351 1.000003,1.000021 
	C34.333317,1.000014 67.666634,1.000014 100.999969,1.000007 
	C100.999977,34.333313 100.999977,67.666626 100.999985,100.999969 
	C87.833336,101.000000 74.666664,101.000000 61.000000,101.000000 
M31.510960,45.951633 
	C31.510960,45.951633 31.036308,46.044109 30.452026,46.060459 
	C30.258543,46.083385 30.065058,46.106308 29.252504,46.309856 
	C28.499641,46.542412 27.746778,46.774971 26.934765,46.152550 
	C26.618727,44.250668 26.229092,42.357601 26.000000,40.445305 
	C25.210436,33.854530 24.601099,27.239309 23.663282,20.670498 
	C23.267090,17.895422 22.299484,15.189049 21.453453,12.494832 
	C20.666212,9.987830 19.695400,7.538473 18.373653,3.863206 
	C10.057762,26.446215 5.103809,47.808960 14.098178,70.256165 
	C15.106750,64.865913 16.115322,59.475666 17.123896,54.085419 
	C18.179007,67.472198 15.063087,79.736031 7.889830,90.985374 
	C6.923690,92.500511 6.936806,94.640083 6.496471,96.490501 
	C7.002440,96.654053 7.508409,96.817596 8.014378,96.981148 
	C11.946836,92.254395 12.279304,84.347794 20.774958,82.953934 
	C25.838280,82.040840 30.901602,81.127747 35.966351,80.804092 
	C35.976341,81.196526 35.986332,81.588959 35.262421,82.221054 
	C33.604427,82.598900 31.946438,82.976738 29.577904,83.516510 
	C38.338402,84.691765 46.249706,85.716728 54.149734,86.822281 
	C63.662266,88.153496 73.083664,88.103035 82.236626,84.826035 
	C83.655418,84.318069 84.769371,82.958641 86.226974,81.322227 
	C89.826950,79.162483 87.229820,77.798111 85.680351,76.063133 
	C78.524261,68.050262 71.421921,59.988457 64.380051,51.874989 
	C61.654671,48.734871 62.259254,45.992069 65.551590,43.446781 
	C71.330338,38.979267 76.961426,34.320419 82.642265,29.726755 
	C84.910095,27.892937 86.405785,25.718216 84.329796,22.923130 
	C82.349121,20.256369 79.791443,20.500082 77.314980,22.254684 
	C72.172775,25.897987 67.006935,29.514954 61.988495,33.324142 
	C55.859917,37.975960 55.799652,37.997860 50.864342,32.312408 
	C49.434689,30.665464 47.632221,29.342152 46.000668,27.870474 
	C45.353279,28.158964 44.705891,28.447453 44.058506,28.735943 
	C44.573086,31.410183 44.719940,34.224022 45.672058,36.732170 
	C48.393284,43.900646 48.406960,44.213680 41.842514,47.952740 
	C39.889030,47.304283 37.935547,46.655827 35.335468,46.183704 
	C34.999741,46.477497 34.664013,46.771286 34.156796,46.393681 
	C33.434742,46.266773 32.712685,46.139862 31.510960,45.951633 
z"/>
<path fill="#090909" opacity="1.000000" stroke="none" 
	d="
M41.768364,48.824226 
	C48.406960,44.213680 48.393284,43.900646 45.672058,36.732170 
	C44.719940,34.224022 44.573086,31.410183 44.058506,28.735943 
	C44.705891,28.447453 45.353279,28.158964 46.000668,27.870474 
	C47.632221,29.342152 49.434689,30.665464 50.864342,32.312408 
	C55.799652,37.997860 55.859917,37.975960 61.988495,33.324142 
	C67.006935,29.514954 72.172775,25.897987 77.314980,22.254684 
	C79.791443,20.500082 82.349121,20.256369 84.329796,22.923130 
	C86.405785,25.718216 84.910095,27.892937 82.642265,29.726755 
	C76.961426,34.320419 71.330338,38.979267 65.551590,43.446781 
	C62.259254,45.992069 61.654671,48.734871 64.380051,51.874989 
	C71.421921,59.988457 78.524261,68.050262 85.680351,76.063133 
	C87.229820,77.798111 89.826950,79.162483 85.734306,81.652435 
	C84.198364,81.998344 83.155083,82.014053 82.031494,81.688934 
	C72.493813,72.406769 63.036449,63.465435 53.058025,54.031479 
	C48.367512,57.170639 42.941612,60.952324 37.335693,64.445076 
	C35.981384,65.288872 33.174911,65.991791 32.543415,65.327240 
	C31.403807,64.127991 30.793861,61.741375 31.091503,60.049194 
	C31.400646,58.291622 32.805782,56.521931 34.162090,55.198807 
	C36.523308,52.895367 39.215134,50.930832 41.768364,48.824226 
z"/>
<path fill="#0F0F0F" opacity="1.000000" stroke="none" 
	d="
M19.985094,82.953995 
	C12.279304,84.347794 11.946836,92.254395 8.014378,96.981148 
	C7.508409,96.817596 7.002440,96.654053 6.496471,96.490501 
	C6.936806,94.640083 6.923690,92.500511 7.889830,90.985374 
	C15.063087,79.736031 18.179007,67.472198 17.123896,54.085419 
	C16.115322,59.475666 15.106750,64.865913 14.098178,70.256165 
	C5.103809,47.808960 10.057762,26.446215 18.373653,3.863206 
	C19.695400,7.538473 20.666212,9.987830 21.453453,12.494832 
	C22.299484,15.189049 23.267090,17.895422 23.663282,20.670498 
	C24.601099,27.239309 25.210436,33.854530 26.000000,40.445305 
	C26.229092,42.357601 26.618727,44.250668 26.875883,46.809040 
	C26.817001,47.465530 27.016434,47.913261 27.016434,47.913261 
	C27.016434,47.913261 27.505838,47.936146 27.530510,48.306324 
	C26.781782,49.930931 25.735512,51.094860 25.284065,52.456066 
	C23.666256,57.334091 22.375933,62.321789 20.721535,67.186310 
	C19.088640,71.987617 17.164497,76.689873 15.103964,82.133453 
	C17.283989,81.735542 18.548048,81.504814 19.860573,81.693527 
	C19.934391,82.393318 19.959743,82.673660 19.985094,82.953995 
z"/>
<path fill="#F7F7F7" opacity="1.000000" stroke="none" 
	d="
M19.812107,81.274086 
	C18.548048,81.504814 17.283989,81.735542 15.103964,82.133453 
	C17.164497,76.689873 19.088640,71.987617 20.721535,67.186310 
	C22.375933,62.321789 23.666256,57.334091 25.284065,52.456066 
	C25.735512,51.094860 26.781782,49.930931 27.827208,48.505096 
	C28.736294,48.623665 29.373352,48.913635 30.202297,49.423424 
	C30.963619,49.704853 31.533056,49.766460 32.404766,49.789391 
	C33.177860,49.374249 33.648682,48.997784 34.486359,48.645306 
	C35.229500,47.781986 35.605782,46.894680 35.982063,46.007370 
	C37.935547,46.655827 39.889030,47.304283 41.805439,48.388481 
	C39.215134,50.930832 36.523308,52.895367 34.162090,55.198807 
	C32.805782,56.521931 31.400646,58.291622 31.091503,60.049194 
	C30.793861,61.741375 31.403807,64.127991 32.543415,65.327240 
	C33.174911,65.991791 35.981384,65.288872 37.335693,64.445076 
	C42.941612,60.952324 48.367512,57.170639 53.058025,54.031479 
	C63.036449,63.465435 72.493813,72.406769 81.607513,81.731071 
	C75.527412,80.511063 69.728607,79.098282 64.074539,77.244095 
	C59.660778,75.796661 55.552261,73.331322 51.088856,72.139130 
	C38.940208,68.894196 28.970272,73.871437 19.812107,81.274086 
z"/>
<path fill="#0F0F0F" opacity="1.000000" stroke="none" 
	d="
M19.860573,81.693527 
	C28.970272,73.871437 38.940208,68.894196 51.088856,72.139130 
	C55.552261,73.331322 59.660778,75.796661 64.074539,77.244095 
	C69.728607,79.098282 75.527412,80.511063 81.687836,82.071899 
	C83.155083,82.014053 84.198364,81.998344 85.632965,81.987808 
	C84.769371,82.958641 83.655418,84.318069 82.236626,84.826035 
	C73.083664,88.103035 63.662266,88.153496 54.149734,86.822281 
	C46.249706,85.716728 38.338402,84.691765 29.577904,83.516510 
	C31.946438,82.976738 33.604427,82.598900 36.070507,82.171005 
	C41.365910,81.633110 45.853226,81.145279 50.340542,80.657440 
	C50.319046,80.509850 50.297550,80.362251 50.276054,80.214661 
	C45.505676,80.214661 40.735302,80.214661 35.964924,80.214661 
	C30.901602,81.127747 25.838280,82.040840 20.380026,82.953964 
	C19.959743,82.673660 19.934391,82.393318 19.860573,81.693527 
z"/>
<path fill="#DDDDDD" opacity="1.000000" stroke="none" 
	d="
M35.965637,80.509377 
	C40.735302,80.214661 45.505676,80.214661 50.276054,80.214661 
	C50.297550,80.362251 50.319046,80.509850 50.340542,80.657440 
	C45.853226,81.145279 41.365910,81.633110 36.437458,82.051170 
	C35.986332,81.588959 35.976341,81.196526 35.965637,80.509377 
z"/>
<path fill="#C4C4C4" opacity="1.000000" stroke="none" 
	d="
M32.102493,49.828072 
	C31.533056,49.766460 30.963619,49.704853 30.202980,49.037781 
	C29.965044,47.664619 29.918310,46.896923 29.871574,46.129227 
	C30.065058,46.106308 30.258543,46.083385 30.811583,46.292233 
	C31.366652,46.831154 31.646420,46.989307 32.004864,46.999451 
	C31.999285,47.000439 32.003853,46.989819 31.999172,47.345604 
	C32.030491,48.410286 32.066494,49.119179 32.102493,49.828072 
z"/>
<path fill="#777777" opacity="1.000000" stroke="none" 
	d="
M35.658768,46.095535 
	C35.605782,46.894680 35.229500,47.781986 34.523380,48.473534 
	C34.217281,48.049477 34.237225,47.820850 34.339447,47.469765 
	C34.425526,47.347641 34.328285,47.065079 34.328285,47.065079 
	C34.664013,46.771286 34.999741,46.477497 35.658768,46.095535 
z"/>
<path fill="#6F6F6F" opacity="1.000000" stroke="none" 
	d="
M29.562038,46.219543 
	C29.918310,46.896923 29.965044,47.664619 30.011095,48.817959 
	C29.373352,48.913635 28.736294,48.623665 27.802536,48.134918 
	C27.505838,47.936146 27.016434,47.913261 27.016434,47.913261 
	C27.016434,47.913261 26.817001,47.465530 26.905458,47.236530 
	C27.746778,46.774971 28.499641,46.542412 29.562038,46.219543 
z"/>
<path fill="#C7C7C7" opacity="1.000000" stroke="none" 
	d="
M34.242538,46.729378 
	C34.328285,47.065079 34.425526,47.347641 33.988045,47.276588 
	C33.034992,47.133633 32.519421,47.061726 32.003853,46.989819 
	C32.003853,46.989819 31.999285,47.000439 32.029583,46.752472 
	C32.059883,46.504505 31.990631,46.012955 31.990631,46.012955 
	C32.712685,46.139862 33.434742,46.266773 34.242538,46.729378 
z"/>
<path fill="#9F9F9F" opacity="1.000000" stroke="none" 
	d="
M31.750795,45.982292 
	C31.990631,46.012955 32.059883,46.504505 32.035164,46.751488 
	C31.646420,46.989307 31.366652,46.831154 31.103724,46.284058 
	C31.036308,46.044109 31.510960,45.951633 31.750795,45.982292 
z"/>
<path fill="#9F9F9F" opacity="1.000000" stroke="none" 
	d="
M31.999172,47.345604 
	C32.519421,47.061726 33.034992,47.133633 33.901962,47.398716 
	C34.237225,47.820850 34.217281,48.049477 34.156521,48.449543 
	C33.648682,48.997784 33.177860,49.374249 32.404766,49.789391 
	C32.066494,49.119179 32.030491,48.410286 31.999172,47.345604 
z"/>
</svg>